<?xml version="1.0" encoding="iso-8859-1"?>
<!-- Generator: Adobe Illustrator 19.0.0, SVG Export Plug-In . SVG Version: 6.00 Build 0)  -->
<svg version="1.1" id="Capa_1" xmlns="http://www.w3.org/2000/svg" xmlns:xlink="http://www.w3.org/1999/xlink" x="0px" y="0px"
	 viewBox="0 0 512 512" style="enable-background:new 0 0 512 512;" xml:space="preserve">
<g>
	<g>
		<rect x="6.599" y="303.505" transform="matrix(0.7071 -0.7071 0.7071 0.7071 -213.2395 122.2044)" width="68.589" height="30"/>
	</g>
</g>
<g>
	<g>
		<rect x="25.91" y="159.201" transform="matrix(0.7071 -0.7071 0.7071 0.7071 -124.8395 85.6013)" width="30" height="68.589"/>
	</g>
</g>
<g>
	<g>
		<rect x="456.1" y="284.209" transform="matrix(0.7071 -0.7071 0.7071 0.7071 -87.2342 426.4057)" width="30" height="68.589"/>
	</g>
</g>
<g>
	<g>
		<path d="M431,241.092v-80h-95c-33.549,0-63.093,17.481-80,43.814c-16.907-26.332-46.45-43.814-80-43.814H81v80H0v30h81v80h95
			c33.55,0,63.093-17.481,80-43.814c16.907,26.332,46.451,43.814,80,43.814h95v-80h81v-30H431z M176,321.092h-65v-130h65
			c35.841,0,65,29.159,65,65S211.841,321.092,176,321.092z M401,321.092h-65c-35.841,0-65-29.159-65-65s29.159-65,65-65h65V321.092z
			"/>
	</g>
</g>
<g>
	<g>
		<rect x="436.803" y="178.499" transform="matrix(0.7071 -0.7071 0.7071 0.7071 1.157 389.7906)" width="68.589" height="30"/>
	</g>
</g>
<g>
</g>
<g>
</g>
<g>
</g>
<g>
</g>
<g>
</g>
<g>
</g>
<g>
</g>
<g>
</g>
<g>
</g>
<g>
</g>
<g>
</g>
<g>
</g>
<g>
</g>
<g>
</g>
<g>
</g>
</svg>
